<svg width="595" height="842" viewBox="0 0 595 842" fill="none" xmlns="http://www.w3.org/2000/svg">
<rect width="595" height="842" fill="#F3F4F6"/>
<path d="M413.875 271.375H181.125C162.762 271.375 147.875 286.262 147.875 304.625V537.375C147.875 555.738 162.762 570.625 181.125 570.625H413.875C432.238 570.625 447.125 555.738 447.125 537.375V304.625C447.125 286.262 432.238 271.375 413.875 271.375Z" stroke="#B9BECA" stroke-width="20" stroke-linecap="round" stroke-linejoin="round"/>
<path d="M247.625 404.375C265.988 404.375 280.875 389.488 280.875 371.125C280.875 352.762 265.988 337.875 247.625 337.875C229.262 337.875 214.375 352.762 214.375 371.125C214.375 389.488 229.262 404.375 247.625 404.375Z" stroke="#B9BECA" stroke-width="20" stroke-linecap="round" stroke-linejoin="round"/>
<path d="M447.125 470.875L395.82 419.57C389.585 413.337 381.129 409.835 372.312 409.835C363.496 409.835 355.04 413.337 348.805 419.57L197.75 570.625" stroke="#B9BECA" stroke-width="20" stroke-linecap="round" stroke-linejoin="round"/>
</svg>
