<svg width="512" height="512" viewBox="0 0 512 512" fill="none" xmlns="http://www.w3.org/2000/svg">
<rect width="512" height="512" fill="#090909"/>
<path d="M79.4332 164.682H119.739L173.716 296.429H175.847L229.824 164.682H270.129V346.5H238.524V221.589H236.837L186.589 345.967H162.974L112.725 221.322H111.038V346.5H79.4332V164.682ZM404.806 214.664C403.978 206.911 400.486 200.874 394.33 196.553C388.234 192.233 380.303 190.072 370.538 190.072C363.672 190.072 357.783 191.108 352.871 193.18C347.958 195.251 344.2 198.062 341.596 201.614C338.992 205.165 337.66 209.219 337.601 213.776C337.601 217.564 338.459 220.849 340.175 223.631C341.951 226.412 344.348 228.78 347.366 230.733C350.385 232.627 353.729 234.225 357.398 235.527C361.068 236.829 364.767 237.924 368.496 238.812L385.541 243.073C392.407 244.671 399.006 246.831 405.339 249.554C411.731 252.277 417.442 255.709 422.473 259.852C427.563 263.995 431.588 268.996 434.547 274.856C437.506 280.715 438.986 287.581 438.986 295.452C438.986 306.106 436.263 315.487 430.818 323.595C425.373 331.644 417.501 337.948 407.203 342.505C396.964 347.003 384.565 349.252 370.005 349.252C355.86 349.252 343.579 347.062 333.162 342.683C322.804 338.303 314.696 331.911 308.837 323.506C303.036 315.102 299.9 304.863 299.426 292.789H331.83C332.304 299.122 334.257 304.389 337.69 308.592C341.122 312.794 345.591 315.931 351.095 318.002C356.659 320.074 362.873 321.109 369.739 321.109C376.9 321.109 383.174 320.044 388.56 317.913C394.005 315.723 398.266 312.705 401.344 308.858C404.421 304.952 405.99 300.394 406.049 295.186C405.99 290.451 404.599 286.545 401.876 283.467C399.154 280.33 395.336 277.726 390.424 275.655C385.571 273.524 379.889 271.63 373.379 269.973L352.693 264.646C337.719 260.799 325.882 254.969 317.182 247.157C308.541 239.285 304.22 228.839 304.22 215.818C304.22 205.106 307.12 195.725 312.92 187.675C318.78 179.626 326.74 173.382 336.802 168.943C346.863 164.445 358.257 162.196 370.982 162.196C383.884 162.196 395.188 164.445 404.895 168.943C414.661 173.382 422.325 179.567 427.888 187.498C433.452 195.37 436.322 204.425 436.5 214.664H404.806Z" fill="white"/>
</svg>
